<svg version="1.1" id="Layer_1" xmlns="http://www.w3.org/2000/svg" xmlns:xlink="http://www.w3.org/1999/xlink" x="0px"
	y="0px" viewBox="0 0 1200 1200" enable-background="new 0 0 1200 1200" xml:space="preserve">
	<g>
		<path fill="#485C8E"
			d="M717.257,953.758c-7.235-2.382-14.154-5.243-20.761-8.485c-19.832,13.365-39.572,26.072-58.985,37.964&#10;&#9;&#9;c-11.067,6.782-28.737,16.993-40.874,23.947c-16.401-9.772-44.302-26.555-61.256-37.608&#10;&#9;&#9;c-166.082-108.282-366.602-284.91-414.402-416.851C69.681,411.159,131.81,259.138,262.421,206.631&#10;&#9;&#9;c39.935-16.049,82.232-21.066,123.352-16.234c75.983,8.929,147.888,51.517,193.054,120.309c4.868,7.408,13.104,11.896,21.983,11.95&#10;&#9;&#9;c8.861,0.055,17.168-4.327,22.125-11.678c70.92-105.143,204.531-147.243,317.661-100.142&#10;&#9;&#9;c129.954,54.125,190.197,206.907,137.151,347.82c-3.222,8.558-7.125,17.326-11.634,26.265c0.786,1.129,1.572,2.256,2.33,3.427&#10;&#9;&#9;c11.265,17.387,18.853,37.923,22.562,59.299c15.426-24.064,27.786-47.642,36.325-70.326&#10;&#9;&#9;c63.161-167.771-9.915-350.235-166.363-415.392c-125.244-52.157-270.955-14.028-359.722,90.138&#10;&#9;&#9;c-87.477-105.263-232.715-145.19-358.588-94.594C85.419,220.687,10.09,402.229,71.168,570.772&#10;&#9;&#9;c52.225,144.16,256.249,326.465,435.279,443.183c26.047,16.986,74.439,45.498,76.486,46.703c3.223,1.897,6.752,3.06,10.345,3.482&#10;&#9;&#9;c5.506,0.647,11.17-0.436,16.15-3.26c1.499-0.847,36.892-20.902,55.763-32.464c30.713-18.813,62.544-39.8,94.519-62.398&#10;&#9;&#9;c-2.227-1.263-3.579-1.655-4.642-1.877C743.302,961.677,731.286,958.377,717.257,953.758z"
			style="fill: #ffffff;" />
		<path fill="#485C8E"
			d="M924.173,793.418c-3.81-15.648-8.652-43.551-42.218-61.246l-0.177,0.078l-0.036-0.191&#10;&#9;&#9;c-33.566-17.695-59.323-5.922-74.386-0.223c-15.063,5.699-42.985,24.167-72.225,29.239c-29.24,5.073-57.976,26.062-63.111,61.876&#10;&#9;&#9;c-5.134,35.814,24.86,68.316,61.808,80.482c10.564,3.478,21.213,6.57,32.101,8.85c8.055,1.687,15.147,4.668,22.239,8.997&#10;&#9;&#9;c6.508,3.973,11.494,9.395,17.146,14.428c6.048,5.386,12.4,10.425,18.834,15.338c30.916,23.609,74.68,29.989,101.326,5.515&#10;&#9;&#9;c26.647-24.473,27.725-60.042,15.388-87.033C928.525,842.537,927.983,809.065,924.173,793.418z"
			style="fill: #ffffff;" />
		<path fill="#485C8E"
			d="M816.121,690.27c36.174,24.245,74.361,1.352,94.649-39.115c20.289-40.468,28.873-77.872,17.111-91.046&#10;&#9;&#9;c-19.5-21.841-82.682-7.862-113.96,31.009C773.449,641.418,806.328,683.706,816.121,690.27z"
			style="fill: #ffffff;" />
		<path fill="#485C8E"
			d="M726.644,734.179c21.702,0.793,48.157-29.415,46.196-66.145s-7.963-65.984-30.569-65.76&#10;&#9;&#9;c0,0-40.376-2.099-59.309,63.032C670.357,708.666,704.943,733.386,726.644,734.179z"
			style="fill: #ffffff;" />
		<path fill="#485C8E"
			d="M953.363,762.618c10.949,4.371,64.418,7.601,83.047-54.214c14.396-47.77-9.775-107.798-38.813-111.544&#10;&#9;&#9;c-17.515-2.259-43.525,25.959-65.447,65.566C910.228,702.031,912.919,746.473,953.363,762.618z"
			style="fill: #ffffff;" />
		<path fill="#485C8E"
			d="M996.166,785.761c-31.411,19.138-41.385,58.033-28.468,75.49c12.918,17.456,52.856,32.022,81.506-2.879&#10;&#9;&#9;c43.037-52.426,18.49-84.551,18.49-84.551C1055.105,755.044,1027.578,766.623,996.166,785.761z"
			style="fill: #ffffff;" />
	</g>
</svg>